<?xml version="1.0" standalone="no"?>
<!DOCTYPE svg PUBLIC "-//W3C//DTD SVG 20010904//EN"
 "http://www.w3.org/TR/2001/REC-SVG-20010904/DTD/svg10.dtd">
<svg version="1.0" xmlns="http://www.w3.org/2000/svg"
 width="1444.000000pt" height="1444.000000pt" viewBox="0 0 1444.000000 1444.000000"
 preserveAspectRatio="xMidYMid meet">
<metadata>
Created by potrace 1.11, written by Peter Selinger 2001-2013
</metadata>
<g transform="translate(0.000000,1444.000000) scale(0.100000,-0.100000)"
fill="#000000" stroke="none">
<path d="M9386 11275 c-263 -47 -353 -88 -588 -271 -119 -93 -511 -528 -607
-672 -24 -37 -71 -101 -105 -142 -178 -217 -264 -351 -408 -630 -61 -120 -118
-261 -118 -293 0 -37 -21 -23 -64 42 -56 84 -102 126 -176 159 -52 25 -69 27
-340 38 -157 7 -364 15 -460 18 -303 9 -714 31 -1075 57 -115 8 -334 9 -785 3
-752 -10 -2014 -6 -2195 7 -71 5 -224 16 -340 25 -244 18 -634 23 -820 10
-152 -10 -178 -21 -271 -117 -33 -33 -86 -79 -119 -102 -33 -23 -90 -72 -126
-108 -78 -76 -75 -67 -84 -314 -4 -93 -13 -255 -22 -360 -16 -194 -20 -416
-41 -2430 -11 -940 -10 -950 9 -996 11 -26 31 -56 45 -68 13 -11 24 -28 24
-36 0 -30 61 -150 93 -184 49 -51 272 -228 315 -250 33 -17 94 -33 237 -61 22
-5 119 -13 215 -20 96 -6 176 -13 179 -15 9 -9 -75 -226 -131 -340 -33 -66
-88 -163 -123 -215 -68 -101 -205 -276 -233 -298 -17 -14 -94 -14 -732 4 -215
6 -430 -5 -502 -26 -37 -11 -38 -13 -38 -55 0 -38 3 -45 23 -49 12 -3 204 -8
427 -12 223 -3 463 -9 534 -13 l129 -6 -44 -36 c-172 -141 -477 -263 -788
-316 -117 -19 -264 -43 -273 -43 -5 0 -8 -39 -8 -86 l0 -86 52 7 c318 40 644
128 841 225 159 79 265 151 376 255 l91 85 210 0 210 0 0 -61 c0 -100 32 -135
151 -164 135 -33 1890 -53 2174 -25 182 18 945 18 1380 0 271 -11 283 -11 368
9 161 38 216 72 242 148 13 37 15 38 57 35 53 -3 703 -18 1378 -32 278 -6 560
-15 628 -20 228 -18 1032 -6 1692 26 392 19 952 15 1170 -9 134 -15 668 -30
1018 -29 143 0 193 -3 225 -15 36 -14 155 -16 899 -21 l857 -5 5 24 c3 13 8
41 11 61 l6 37 -128 3 -128 3 -11 190 c-6 105 -14 245 -18 313 l-7 122 44 48
c24 26 88 106 143 177 195 256 198 262 202 455 4 158 -19 451 -43 567 -21 97
-70 243 -104 312 -16 31 -45 97 -65 148 l-37 92 34 48 c30 43 77 143 77 163 0
5 20 50 43 102 24 51 56 127 72 168 15 41 65 154 110 250 45 96 95 206 110
244 15 38 45 106 66 149 l39 80 0 253 0 254 -42 26 c-23 15 -103 53 -178 84
-74 32 -193 84 -265 117 -148 69 -222 95 -420 152 -323 92 -471 121 -616 121
l-110 0 -38 83 c-21 45 -59 125 -84 178 -25 54 -83 162 -129 240 -47 79 -109
187 -138 239 -107 190 -228 373 -389 590 -31 41 -93 127 -138 190 -45 63 -103
144 -130 179 -26 35 -57 75 -68 90 -43 58 -182 228 -230 281 -76 84 -162 184
-257 300 -198 241 -475 471 -681 564 -124 57 -448 156 -597 182 -178 32 -361
31 -544 -1z m424 -111 c128 -10 536 -132 675 -201 192 -96 439 -309 644 -556
132 -160 174 -209 282 -334 113 -130 409 -525 425 -568 3 -7 -14 -11 -47 -13
-29 -1 -58 -7 -65 -13 -7 -6 -18 -8 -24 -4 -5 3 -10 1 -10 -4 0 -31 -121 5
-220 65 -29 18 -116 12 -159 -11 -33 -17 -94 -82 -116 -125 -42 -81 -58 -277
-31 -375 19 -69 50 -138 70 -154 9 -7 16 -24 16 -37 0 -15 6 -24 15 -24 13 0
17 -6 14 -27 0 -3 6 -10 15 -15 22 -12 22 -88 1 -88 -8 0 -15 6 -15 13 0 6 -5
4 -11 -5 -11 -19 3 -57 27 -71 7 -4 11 -13 9 -20 -8 -25 40 -102 75 -120 40
-21 129 -17 167 8 12 8 29 15 37 15 8 0 18 5 22 12 5 7 3 8 -6 3 -9 -5 -11 -4
-6 4 4 6 11 9 16 6 19 -12 198 91 241 138 9 9 21 17 28 17 6 0 11 5 11 10 0 6
5 10 10 10 6 0 24 14 42 30 17 17 39 30 49 30 16 0 18 -6 13 -43 l-6 -44 45
-13 c56 -15 77 -43 84 -115 7 -68 -2 -107 -25 -104 -75 7 -109 -2 -145 -38
-31 -31 -37 -43 -37 -80 0 -32 -4 -43 -15 -43 -11 0 -15 -11 -15 -40 0 -33 -4
-42 -25 -52 -14 -6 -25 -16 -25 -21 0 -5 7 -4 16 4 13 10 17 10 24 -1 10 -16
-13 -35 -30 -25 -6 3 -10 0 -10 -7 0 -7 -33 -25 -73 -40 -82 -31 -152 -47
-127 -29 13 9 13 11 -2 11 -10 0 -18 -5 -18 -11 0 -7 -16 -27 -35 -46 -39 -38
-44 -69 -16 -104 17 -21 22 -22 65 -12 39 9 44 8 35 -3 -8 -10 -8 -14 -1 -14
6 0 17 9 26 21 10 15 20 19 38 14 15 -4 19 -3 10 3 -11 7 -11 10 2 15 9 4 16
2 16 -3 0 -6 11 -10 25 -10 21 0 25 -5 25 -31 0 -29 -2 -31 -27 -25 -18 4 -23
3 -15 -2 11 -8 11 -10 -2 -15 -9 -4 -16 -11 -16 -17 0 -6 7 -4 16 4 8 9 21 16
29 16 7 0 22 3 32 6 10 3 -3 -6 -29 -20 -26 -14 -66 -28 -89 -30 -46 -4 -59
-17 -59 -59 0 -32 44 -79 66 -70 8 3 14 0 14 -6 0 -6 8 -11 18 -11 13 0 14 2
4 9 -14 9 -1 12 93 27 22 3 47 10 55 14 16 9 54 13 85 10 l20 -1 -20 -9 c-16
-7 -12 -9 20 -10 l40 -2 -37 -10 c-21 -6 -38 -14 -38 -18 0 -12 39 -20 46 -9
3 5 14 9 25 9 10 0 19 5 19 10 0 6 7 10 15 10 8 0 15 5 15 11 0 5 -4 7 -10 4
-6 -3 -7 1 -4 9 3 9 13 16 20 16 8 0 17 7 20 15 4 8 18 15 32 15 25 0 25 -1 6
-14 -28 -21 -11 -30 31 -16 20 7 39 9 42 6 4 -3 1 -6 -7 -6 -7 0 -53 -19 -104
-41 -50 -23 -104 -41 -120 -41 -16 0 -39 -6 -52 -15 -13 -8 -33 -13 -44 -10
-11 3 -17 1 -14 -4 3 -5 -2 -12 -10 -15 -9 -3 -14 -10 -11 -15 3 -4 -14 -13
-37 -20 -24 -6 -54 -14 -67 -18 -54 -16 -48 -102 7 -116 24 -6 20 -9 -39 -33
-36 -15 -77 -34 -89 -43 -21 -14 -23 -19 -12 -45 17 -44 33 -157 26 -195 -12
-76 -14 -79 -57 -98 -134 -62 -399 -156 -667 -236 -124 -37 -297 -95 -385
-130 -88 -34 -207 -79 -265 -100 -100 -37 -244 -95 -340 -138 -25 -11 -84 -30
-133 -43 -48 -13 -101 -31 -117 -39 -115 -59 -332 -234 -350 -281 -6 -15 -35
-36 -81 -59 -39 -20 -93 -57 -119 -81 l-48 -45 -41 76 c-58 108 -175 270 -246
341 -33 34 -103 90 -155 124 -197 129 -638 330 -868 394 -50 15 -102 31 -115
37 l-24 11 -7 385 c-4 212 -11 422 -17 467 -5 45 -13 119 -19 166 -5 47 -10
292 -11 545 -2 409 0 463 15 490 9 18 16 53 16 86 0 77 70 320 126 439 131
277 309 552 464 715 26 28 64 77 85 109 67 107 210 272 428 494 285 291 419
364 732 401 50 6 101 13 115 15 26 4 124 0 240 -10z m-7660 -1679 c445 -39
527 -41 1375 -37 1500 8 1904 6 2015 -6 58 -6 202 -16 320 -22 118 -5 294 -15
390 -20 96 -6 303 -15 460 -21 156 -5 286 -12 289 -14 18 -19 -113 -96 -228
-134 -184 -61 -320 -75 -651 -68 -146 3 -310 11 -365 16 -55 6 -199 18 -320
26 -309 21 -1388 21 -1760 -1 -361 -20 -892 -35 -1565 -43 l-555 -6 -45 -26
c-25 -14 -56 -32 -70 -40 -35 -20 -210 -148 -234 -171 -12 -11 -36 -32 -54
-46 -60 -46 -61 -52 -75 -414 -13 -349 -13 -397 -4 -1743 5 -773 14 -1129 37
-1565 9 -183 23 -235 86 -322 30 -42 32 -48 15 -48 -11 0 -50 26 -89 58 -38
31 -99 82 -136 112 -80 65 -103 100 -123 183 -32 139 -37 157 -45 157 -4 0 -8
-11 -8 -25 0 -29 -16 -34 -24 -7 -5 15 0 473 24 2507 4 358 13 702 19 765 6
63 15 235 20 383 9 308 -3 274 131 377 41 31 109 94 150 139 l75 81 380 -4
c231 -3 453 -11 565 -21z m9514 -411 c8 -3 25 -26 37 -51 20 -42 21 -49 8 -72
-10 -17 -32 -32 -64 -43 -104 -34 -140 -17 -133 64 5 50 27 84 63 99 24 9 68
11 89 3z m-7328 -199 c81 -23 231 -105 317 -174 153 -121 269 -279 303 -410
27 -107 -4 -425 -55 -562 -20 -53 -162 -239 -182 -239 -5 0 -25 17 -43 38 -26
29 -58 47 -128 74 -135 52 -156 58 -208 58 -26 0 -75 3 -109 6 -49 6 -59 9
-50 20 18 22 0 69 -44 111 -64 61 -95 79 -186 108 -72 23 -96 27 -170 23 -94
-5 -145 -24 -154 -59 -14 -54 29 -77 112 -59 84 18 186 10 240 -18 53 -28 143
-104 133 -113 -4 -4 -135 -9 -291 -11 l-285 -3 -17 57 c-34 116 -103 198 -206
245 -70 32 -150 29 -188 -7 l-25 -23 0 79 c1 138 18 276 43 351 26 77 108 220
166 292 62 76 168 158 247 191 65 27 88 31 201 35 71 3 173 9 228 13 125 9
275 -1 351 -23z m6984 -85 c0 -5 -5 -10 -11 -10 -5 0 -7 5 -4 10 3 6 8 10 11
10 2 0 4 -4 4 -10z m30 -20 c0 -5 -7 -10 -16 -10 -8 0 -12 5 -9 10 3 6 10 10
16 10 5 0 9 -4 9 -10z m40 -15 c0 -2 -6 -5 -13 -8 -8 -3 -14 1 -14 8 0 7 6 11
14 8 7 -3 13 -6 13 -8z m66 -36 c4 -7 1 -10 -7 -7 -8 3 -24 1 -36 -3 -13 -5
-23 -5 -23 1 0 5 10 11 23 13 12 2 25 5 29 6 4 0 10 -4 14 -10z m54 -19 c-8
-5 -26 -9 -40 -9 -23 1 -23 2 5 9 43 11 52 11 35 0z m-202 -48 c2 -7 -3 -12
-12 -12 -9 0 -16 7 -16 16 0 17 22 14 28 -4z m599 -468 c-3 -3 -12 -4 -19 -1
-8 3 -5 6 6 6 11 1 17 -2 13 -5z m23 -199 c7 -9 8 -15 2 -15 -5 0 -12 7 -16
15 -3 8 -4 15 -2 15 2 0 9 -7 16 -15z m-51 -9 c-12 -10 -60 -16 -54 -6 3 5 18
10 32 10 15 0 24 -2 22 -4z m81 -36 c0 -5 -4 -10 -9 -10 -6 0 -13 5 -16 10 -3
6 1 10 9 10 9 0 16 -4 16 -10z m100 0 c0 -11 -3 -12 -42 -15 -15 -1 -25 1 -23
6 3 4 14 5 25 2 11 -3 20 0 20 6 0 6 5 11 10 11 6 0 10 -4 10 -10z m-8761 -80
c52 -38 93 -102 122 -188 12 -35 30 -73 40 -83 33 -33 95 -41 259 -37 356 10
676 -18 780 -70 l35 -17 -55 -2 c-139 -6 -341 -26 -403 -39 -50 -12 -76 -24
-102 -49 -42 -39 -45 -69 -9 -106 21 -22 26 -37 28 -95 2 -38 6 -76 10 -85 4
-10 2 -20 -5 -25 -7 -4 -126 -7 -264 -5 -332 3 -408 22 -482 119 -32 42 -33
46 -33 141 0 64 4 101 13 110 15 15 13 224 -3 266 -13 34 -25 159 -17 179 10
24 40 19 86 -14z m8628 14 c-3 -3 -12 -4 -19 -1 -8 3 -5 6 6 6 11 1 17 -2 13
-5z m-44 -11 c-7 -2 -19 -2 -25 0 -7 3 -2 5 12 5 14 0 19 -2 13 -5z m307 -47
c0 -2 -9 -6 -20 -9 -11 -3 -18 -1 -14 4 5 9 34 13 34 5z m1541 -26 c13 -10 18
-19 12 -20 -7 0 -13 5 -13 10 0 6 -6 10 -14 10 -8 0 -18 5 -21 10 -10 17 11
11 36 -10z m-1538 -7 c-7 -2 -19 -2 -25 0 -7 3 -2 5 12 5 14 0 19 -2 13 -5z
m-103 -13 c0 -5 -8 -10 -17 -10 -15 0 -16 2 -3 10 19 12 20 12 20 0z m1692 1
c-11 -7 -10 -10 3 -15 23 -8 27 -8 21 3 -4 5 3 7 14 4 11 -3 20 -9 20 -14 0
-5 7 -9 15 -9 24 0 17 -16 -7 -17 -12 -1 -26 -9 -31 -18 -8 -14 -11 -13 -31 8
-12 13 -29 27 -37 29 -11 5 -10 9 6 22 11 8 25 15 30 16 6 0 4 -4 -3 -9z m-72
-26 c-6 -16 -6 -25 0 -25 5 0 12 -11 16 -25 3 -14 12 -25 20 -25 9 0 14 -11
14 -30 0 -20 -5 -30 -15 -30 -20 0 -56 73 -51 102 3 13 5 31 5 41 1 9 5 17 11
17 6 0 6 -9 0 -25z m240 -55 c0 -4 -6 -10 -14 -13 -12 -5 -14 2 -7 31 2 7 21
-10 21 -18z m80 -40 c0 -13 -17 -13 -24 -1 -3 5 -14 8 -24 6 -9 -1 -11 0 -4 2
6 3 12 9 12 14 0 6 8 5 20 -1 11 -6 20 -15 20 -20z m250 -89 c57 -30 70 -51
70 -113 0 -51 -8 -75 -56 -176 -31 -64 -60 -118 -65 -120 -5 -2 -9 -10 -9 -18
0 -9 -11 -39 -23 -67 -13 -29 -32 -71 -42 -94 -11 -24 -23 -43 -28 -43 -5 0
-6 -7 -3 -16 3 -9 -9 -45 -28 -82 -19 -37 -49 -98 -66 -137 -18 -38 -35 -64
-37 -57 -3 7 -1 18 5 25 5 7 8 22 7 35 -1 13 4 22 13 22 8 0 12 6 8 15 -3 8
-1 14 5 12 6 -1 16 16 24 37 7 21 18 42 23 45 5 3 9 22 9 41 0 19 2 60 5 90 3
30 9 88 13 128 4 39 12 72 16 72 11 0 12 27 1 34 -5 3 -18 -4 -30 -14 -25 -24
-77 -26 -98 -5 -9 8 -29 15 -45 15 -22 0 -32 7 -41 25 -6 14 -15 25 -19 25 -4
0 -13 17 -20 38 -6 20 -15 39 -18 42 -8 7 -52 110 -58 137 -5 21 -4 21 91 16
88 -5 101 -4 146 18 27 13 49 30 50 37 0 6 6 12 13 12 7 0 20 9 30 20 19 23
18 24 -20 10 -24 -9 -26 -8 -11 3 10 8 15 17 12 20 -3 3 5 3 18 0 18 -4 20 -3
8 6 -8 6 -24 11 -35 11 -14 0 -16 3 -7 8 12 8 139 -30 192 -57z m-1198 -17
c63 -32 96 -117 77 -198 -39 -168 -195 -328 -441 -452 -62 -31 -335 -140 -398
-159 -14 -4 -47 -19 -75 -33 -70 -35 -139 -58 -305 -102 -80 -21 -228 -61
-330 -88 -487 -132 -852 -198 -1162 -212 -308 -14 -527 -45 -706 -100 -73 -23
-90 -20 -40 7 56 30 83 41 160 62 40 11 127 41 193 66 66 26 199 73 295 106
96 34 227 80 290 104 63 24 201 69 305 99 299 89 468 146 590 201 28 13 109
46 180 75 72 29 157 65 190 80 33 15 101 40 150 55 50 15 98 31 107 36 10 5
24 9 31 9 8 0 52 19 98 41 130 64 331 159 336 159 7 0 125 82 190 132 34 26
65 48 68 48 4 0 27 17 53 39 67 55 80 57 144 25z m-8672 -243 c0 -14 -38 -20
-167 -27 -85 -5 -123 -4 -123 4 0 9 32 13 210 25 25 2 53 4 63 5 9 1 17 -2 17
-7z m8897 -93 c-3 -8 -6 -5 -6 6 -1 11 2 17 5 13 3 -3 4 -12 1 -19z m-30 -125
c-3 -10 -5 -4 -5 12 0 17 2 24 5 18 2 -7 2 -21 0 -30z m-16 -50 c-8 -15 -10
-15 -11 -2 0 17 10 32 18 25 2 -3 -1 -13 -7 -23z m43 -129 c3 -8 2 -12 -4 -9
-6 3 -10 10 -10 16 0 14 7 11 14 -7z m-5504 -234 c205 -79 305 -122 500 -217
206 -100 314 -170 400 -254 57 -56 204 -258 195 -267 -2 -3 -35 20 -72 51 -37
30 -156 111 -263 179 -107 68 -218 140 -245 159 -56 38 -78 48 -245 113 -137
53 -249 78 -342 75 -38 -1 -70 0 -72 2 -3 2 -8 53 -12 113 -7 105 -6 109 12
101 10 -4 75 -29 144 -55z m5308 -69 c23 -5 65 -22 92 -39 37 -23 63 -32 104
-33 l54 -2 73 -121 c102 -169 243 -400 288 -471 34 -56 70 -133 157 -342 19
-45 44 -119 55 -163 l21 -80 -60 -113 c-97 -183 -130 -234 -218 -340 -90 -107
-103 -123 -186 -232 -40 -52 -91 -98 -199 -180 -81 -60 -186 -146 -235 -190
-98 -88 -230 -182 -240 -172 -10 10 -39 175 -95 542 -11 72 -28 168 -39 215
-10 47 -24 110 -31 141 l-12 56 47 43 c57 52 106 139 138 240 18 58 23 97 22
176 0 94 -3 107 -32 166 -38 78 -109 158 -140 158 -35 0 -62 -35 -62 -79 l0
-39 -52 -11 c-102 -21 -148 -35 -148 -43 0 -5 -4 -7 -9 -3 -6 3 -24 -8 -41
-25 -17 -17 -35 -28 -40 -25 -4 3 -10 -2 -14 -10 -3 -8 -17 -15 -31 -15 -14 0
-25 -5 -25 -12 0 -6 -3 -9 -6 -5 -4 3 -36 -9 -73 -28 -75 -39 -227 -105 -242
-105 -5 0 -28 -9 -51 -20 -27 -13 -60 -19 -97 -19 -109 2 -260 -63 -493 -212
-162 -103 -194 -126 -316 -224 -48 -38 -94 -75 -102 -82 -8 -6 -75 -60 -148
-120 -154 -124 -190 -150 -241 -168 -20 -7 -117 -52 -216 -100 -340 -165 -428
-197 -685 -249 -217 -45 -522 -65 -541 -36 -10 16 -5 298 12 590 13 207 12
277 -2 346 -7 35 -6 59 1 78 5 15 10 42 10 59 0 18 13 87 30 153 16 67 33 161
36 208 l7 86 56 53 c54 52 140 102 161 95 6 -2 -9 -24 -33 -48 -73 -76 -76
-88 -34 -137 20 -22 20 -22 46 -3 14 10 40 31 56 45 61 54 147 116 152 111 3
-2 0 -30 -6 -62 -9 -56 -21 -184 -40 -425 -7 -102 -10 -110 -66 -223 -96 -193
-88 -261 34 -287 63 -13 173 -7 212 11 39 18 51 49 51 131 1 87 -26 180 -72
253 l-31 48 21 222 c18 195 32 310 46 384 6 29 88 68 186 88 59 12 80 13 127
2 80 -18 575 -14 751 6 163 18 893 128 1005 151 215 45 387 97 625 191 164 64
461 194 545 238 33 17 114 20 183 7z m-10398 -187 c345 -13 470 -30 470 -64 0
-6 7 -10 15 -10 8 0 15 -8 15 -18 0 -10 7 -27 15 -39 15 -21 5 -41 -14 -29 -5
3 -8 -5 -7 -18 1 -23 2 -24 19 -8 18 16 18 15 6 -10 -6 -15 -15 -26 -18 -23
-4 2 -7 -4 -8 -13 -6 -69 -8 -72 -28 -66 -24 8 -18 1 14 -16 13 -6 21 -8 18
-3 -3 5 -2 15 4 23 7 12 9 10 9 -7 0 -12 6 -24 13 -27 6 -4 -10 -4 -38 -1
-123 13 -487 20 -1060 20 -341 0 -605 1 -587 3 37 4 40 16 16 66 -20 41 -13
95 16 121 11 10 20 24 20 30 0 7 6 18 14 24 14 12 124 34 161 33 10 -1 24 3
30 7 5 5 32 9 59 10 26 1 53 5 60 9 30 19 386 22 786 6z m4980 -60 c0 -8 -4
-12 -10 -9 -5 3 -10 10 -10 16 0 5 5 9 10 9 6 0 10 -7 10 -16z m-1153 -9 c8
-8 19 -12 24 -9 18 11 79 -6 79 -21 0 -9 10 -15 23 -15 12 0 30 -7 40 -14 16
-13 16 -14 -7 -29 -68 -45 -78 -62 -85 -148 -6 -76 -6 -82 14 -90 15 -7 12 -8
-14 -4 -18 3 -42 5 -53 5 -10 0 -17 3 -15 8 4 6 -365 11 -923 12 l-126 0 -13
37 c-10 27 -11 38 -2 41 6 2 11 25 11 54 0 58 20 97 62 121 16 9 27 21 24 26
-11 17 160 25 534 23 221 -1 381 3 390 8 19 12 19 13 37 -5z m1184 -86 c22
-11 94 -35 161 -55 104 -30 300 -114 313 -134 2 -3 -8 -39 -22 -80 -13 -41
-33 -113 -43 -160 -10 -47 -30 -138 -44 -202 -14 -65 -26 -132 -26 -149 0 -19
-13 -52 -29 -78 -44 -69 -124 -252 -124 -284 0 -61 87 -126 182 -134 66 -6
138 27 157 73 20 48 18 241 -3 319 -9 33 -16 80 -16 105 0 47 84 398 108 457
l15 34 92 -62 c142 -96 232 -167 352 -274 61 -53 119 -102 131 -107 l22 -10
-25 -101 c-13 -55 -42 -139 -64 -186 -117 -251 -128 -292 -84 -336 21 -21 81
-45 115 -45 11 0 12 -12 6 -62 -4 -35 -10 -173 -14 -308 l-6 -245 -90 -6 c-49
-4 -284 -7 -521 -8 l-430 0 -75 82 c-41 45 -84 96 -96 112 -26 39 -63 222 -63
316 0 68 2 74 35 110 36 41 40 56 37 164 -1 28 -4 310 -8 629 -5 513 -2 699
13 658 3 -7 22 -22 44 -33z m-4481 -120 c0 -6 -4 -7 -10 -4 -5 3 -10 11 -10
16 0 6 5 7 10 4 6 -3 10 -11 10 -16z m-1875 -39 c3 -5 18 -10 33 -10 38 0 13
-21 -28 -23 -25 -2 -34 3 -41 21 -7 18 -5 22 11 22 10 0 22 -4 25 -10z m6775
-881 l0 -102 -36 6 c-20 3 -39 9 -42 12 -9 9 61 185 73 185 3 0 5 -46 5 -101z
m1455 -148 l12 -60 -39 -6 c-22 -4 -44 -3 -48 1 -9 10 47 140 56 131 4 -3 12
-33 19 -66z m-645 -31 c0 -60 0 -60 -30 -60 -27 0 -29 2 -21 23 24 59 42 97
46 97 3 0 5 -27 5 -60z m3534 -33 c31 -31 70 -198 97 -407 11 -85 29 -204 39
-265 38 -213 43 -256 31 -268 -16 -16 -261 -13 -271 3 -4 7 -11 67 -15 134 -9
166 -30 351 -55 476 -40 203 -50 271 -44 294 6 26 51 43 129 49 22 2 46 4 53
5 7 1 23 -8 36 -21z m-369 -37 c3 -6 15 -65 26 -133 10 -67 28 -174 40 -237
26 -149 44 -528 25 -550 -7 -8 -16 -23 -19 -32 -7 -20 -77 -41 -115 -35 -23 3
-22 4 8 6 34 2 34 3 10 12 -24 10 -24 11 -6 25 11 8 28 14 38 14 13 0 18 8 18
31 0 42 -21 122 -34 131 -7 5 -4 8 7 8 21 0 22 7 2 27 -11 10 -24 13 -43 8
-15 -3 -103 -8 -197 -10 -170 -3 -227 -12 -365 -58 -25 -9 -70 -23 -100 -32
-30 -9 -68 -23 -85 -30 -64 -30 -284 -105 -305 -105 -12 0 -59 11 -104 25 -44
13 -100 29 -124 35 -42 11 -43 12 -36 43 19 89 81 197 192 335 76 96 268 242
405 309 113 56 327 126 482 158 66 13 149 33 185 44 77 23 87 24 95 11z
m-6705 -401 c46 -5 87 -12 90 -15 2 -3 -14 -21 -37 -40 -62 -51 -105 -116
-156 -234 l-46 -105 -223 -7 c-123 -4 -229 -5 -235 -3 -15 5 -17 133 -6 308
l6 107 261 0 c144 0 300 -5 346 -11z m-2037 -156 c-1 -84 -7 -161 -12 -171
-11 -21 -100 -26 -681 -41 -213 -5 -280 -10 -297 -21 -41 -27 -77 -158 -67
-247 3 -35 2 -63 -2 -63 -348 -15 -402 -29 -459 -120 -14 -22 -35 -42 -48 -45
-12 -3 -90 -4 -174 -3 l-152 3 53 70 c159 212 268 416 342 640 l47 145 371 3
c204 1 531 2 726 2 l355 0 -2 -152z m2826 130 c21 -5 20 -7 -15 -20 -22 -8
-54 -19 -71 -24 -26 -8 -33 -15 -33 -34 0 -14 -6 -25 -13 -25 -19 0 -37 -58
-37 -118 0 -29 -8 -66 -17 -86 -18 -34 -19 -34 -98 -40 -125 -10 -525 -12
-525 -3 0 4 11 30 25 56 13 27 26 61 29 75 12 67 154 175 231 177 16 0 53 11
80 24 47 22 62 23 235 23 102 0 196 -2 209 -5z m1096 -55 c70 -78 94 -123 107
-204 8 -53 7 -67 -7 -88 -17 -25 -20 -26 -129 -25 -118 1 -180 10 -140 21 16
4 24 19 34 68 19 88 2 195 -36 228 -15 13 -24 26 -20 29 5 6 100 31 123 32 6
1 37 -27 68 -61z m-1218 -304 c-3 -3 -12 -4 -19 -1 -8 3 -5 6 6 6 11 1 17 -2
13 -5z m178 -4 c5 -7 -19 -9 -70 -6 -102 7 -109 16 -12 16 42 0 79 -5 82 -10z
m4342 -87 c-16 -92 -10 -79 -98 -203 -36 -52 -85 -129 -107 -170 -40 -75 -61
-90 -91 -71 -22 14 1 122 41 197 51 95 251 345 265 331 2 -2 -3 -40 -10 -84z
m950 71 c-3 -3 -12 -4 -19 -1 -8 3 -5 6 6 6 11 1 17 -2 13 -5z m-7 -24 c24 -8
24 -8 3 -9 -27 -1 -30 -25 -8 -67 8 -16 15 -46 15 -66 0 -36 -1 -37 -42 -41
-32 -2 -25 -4 27 -6 57 -2 65 -4 41 -11 -32 -10 -156 -1 -156 10 0 4 -17 7
-37 6 -33 -1 -38 2 -41 23 -2 13 1 28 7 34 6 6 11 23 11 37 0 21 7 27 40 38
22 6 46 12 54 12 7 0 19 7 26 15 10 12 9 15 -6 15 -16 0 -17 2 -4 10 17 11 35
11 70 0z m-8190 -77 c0 -10 -7 -36 -16 -59 l-16 -41 -105 -7 c-237 -14 -403
-2 -452 32 -84 60 -169 69 -259 27 -30 -14 -60 -25 -68 -25 -17 0 -19 44 -1
58 7 5 131 12 297 16 156 4 286 9 289 11 2 3 78 5 168 5 147 0 163 -2 163 -17z
m5865 -13 c305 -11 515 -26 527 -38 4 -4 9 -34 10 -67 l3 -60 -290 3 c-159 1
-393 7 -520 13 -271 12 -1457 6 -1745 -10 -309 -16 -595 -17 -865 -2 -137 8
-349 15 -470 16 -441 3 -1049 25 -1057 38 -4 7 -8 29 -8 50 l0 38 553 -6 c303
-3 638 -11 742 -16 105 -5 269 -12 365 -16 222 -7 868 13 1053 32 78 9 196 19
262 24 174 12 1102 13 1440 1z m1938 -27 c-7 -2 -19 -2 -25 0 -7 3 -2 5 12 5
14 0 19 -2 13 -5z m61 -2 c15 -6 16 -9 5 -13 -8 -3 -20 1 -27 8 -14 15 -7 17
22 5z m-31 -18 c-7 -2 -19 -2 -25 0 -7 3 -2 5 12 5 14 0 19 -2 13 -5z m740
-24 c-3 -12 -1 -24 5 -28 6 -4 -11 -8 -38 -9 -27 -1 -51 2 -54 7 -3 4 6 6 19
3 20 -3 25 0 25 16 0 18 10 25 42 31 3 0 4 -8 1 -20z m-750 4 c-7 -2 -19 -2
-25 0 -7 3 -2 5 12 5 14 0 19 -2 13 -5z"/>
<path d="M8816 9624 c-139 -30 -339 -125 -446 -212 -41 -33 -83 -69 -92 -80
-134 -162 -222 -285 -297 -419 -55 -101 -52 -93 -162 -433 -45 -140 -95 -281
-111 -314 -48 -95 -16 -143 48 -73 17 17 76 93 131 167 154 206 257 295 469
403 122 62 152 74 279 107 342 90 522 104 780 63 126 -20 182 -39 319 -111
104 -55 162 -93 346 -226 41 -29 107 -73 145 -96 39 -24 102 -65 142 -91 40
-27 79 -49 87 -49 16 0 36 29 36 52 0 28 -221 346 -346 501 -42 50 -110 135
-151 187 -185 231 -306 343 -513 477 -231 148 -273 163 -459 162 -79 0 -165
-7 -205 -15z m435 -70 c157 -74 489 -320 489 -363 0 -13 -26 -15 -34 -3 -3 4
-21 6 -41 4 -27 -3 -35 -9 -33 -21 3 -13 18 -17 78 -19 41 -2 78 -6 82 -10 4
-4 4 -46 0 -92 -4 -47 -6 -93 -4 -102 4 -18 44 -40 166 -88 43 -17 94 -42 112
-57 28 -21 180 -212 209 -262 10 -17 5 -15 -94 56 -97 70 -124 95 -173 166
-23 31 -46 57 -53 57 -6 0 -40 -14 -75 -31 -65 -31 -87 -32 -96 -2 -3 10 -17
48 -31 86 -22 57 -30 67 -50 67 -33 0 -123 -47 -123 -65 0 -8 -9 -15 -20 -15
-14 0 -22 11 -31 39 -7 22 -25 56 -42 77 -27 32 -34 36 -66 31 -20 -3 -73 -26
-118 -52 l-82 -47 -58 61 c-61 65 -70 70 -80 45 -4 -10 9 -31 37 -59 23 -23
38 -45 33 -48 -4 -2 -59 -6 -122 -8 l-114 -4 -16 27 c-9 15 -36 43 -61 63 -25
20 -55 45 -66 55 -26 24 -46 18 -71 -18 -27 -41 -63 -115 -57 -121 2 -3 25 18
50 47 42 48 74 66 74 42 0 -6 21 -30 47 -55 25 -25 44 -48 41 -51 -9 -8 -186
-56 -230 -61 -33 -5 -38 -3 -38 16 0 14 -16 30 -52 51 -29 16 -56 30 -60 30
-21 0 -2 -23 47 -58 l54 -39 -52 -26 c-157 -78 -203 -91 -292 -78 -32 4 -70 5
-85 1 -27 -7 -59 -55 -81 -123 -20 -65 -57 -117 -92 -132 -30 -13 -88 -92
-179 -245 -32 -54 -32 -21 0 61 16 41 39 105 52 142 19 60 27 71 56 83 42 18
44 34 4 34 -26 0 -29 3 -22 18 5 9 17 46 26 82 10 36 29 85 42 109 13 24 24
49 24 56 0 43 190 327 295 442 73 79 112 108 81 61 -8 -13 -26 -61 -40 -107
-21 -66 -25 -91 -17 -112 5 -16 7 -30 3 -33 -4 -2 -31 0 -61 6 -59 10 -74 5
-45 -17 54 -40 118 -24 148 39 15 31 16 40 5 46 -10 7 -9 21 6 77 10 37 18 85
19 106 1 30 9 44 41 72 77 68 332 178 460 198 17 3 93 4 170 3 134 -1 143 -3
206 -32z m610 -476 c13 -18 28 -37 35 -43 17 -15 94 -121 94 -130 0 -4 -15 -4
-32 0 -18 3 -54 9 -81 12 -53 6 -52 4 -61 114 -8 88 6 103 45 47z m-391 -148
c26 -51 17 -56 -82 -40 -98 15 -98 14 -28 54 64 37 85 34 110 -14z m241 -57
c6 -16 18 -40 26 -55 8 -16 13 -28 11 -28 -15 0 -153 59 -155 67 -3 8 70 38
100 42 4 1 12 -11 18 -26z m264 -139 c20 -37 159 -174 177 -174 5 0 29 -14 53
-30 38 -26 47 -29 64 -18 11 7 22 10 24 8 18 -20 78 -123 75 -130 -2 -5 -25 6
-53 24 -27 19 -77 52 -110 74 -195 129 -356 241 -356 249 1 10 58 31 86 32 14
1 27 -11 40 -35z m-1799 -39 c9 -8 27 -15 41 -15 13 0 23 -4 21 -9 -5 -16
-151 -120 -159 -115 -10 6 62 154 74 154 5 0 15 -7 23 -15z"/>
<path d="M9001 9513 c-28 -32 -51 -63 -51 -69 0 -6 -7 -17 -16 -24 -8 -8 -20
-23 -26 -34 -5 -12 33 21 85 73 53 52 94 98 91 103 -12 19 -35 5 -83 -49z"/>
<path d="M9100 9539 c0 -5 8 -24 17 -42 10 -18 32 -66 49 -107 18 -43 39 -76
48 -78 9 -2 16 2 16 9 0 24 -100 217 -115 223 -8 3 -15 1 -15 -5z"/>
<path d="M8737 9474 c-6 -7 76 -120 103 -141 17 -14 40 -17 40 -5 0 11 -119
152 -129 152 -4 0 -10 -3 -14 -6z"/>
<path d="M8673 9445 c-10 -14 -33 -46 -51 -70 -17 -24 -36 -55 -42 -69 -13
-35 -27 -33 -96 14 -32 21 -61 37 -64 34 -3 -4 17 -26 45 -50 36 -32 58 -44
81 -44 34 0 29 -6 141 159 13 19 23 38 23 42 0 17 -19 9 -37 -16z"/>
<path d="M9375 9400 c-7 -11 39 -25 54 -15 6 3 11 10 11 16 0 12 -57 12 -65
-1z"/>
<path d="M9467 9353 c-7 -12 35 -115 67 -164 26 -38 56 -52 56 -26 0 10 -99
178 -115 195 -2 2 -5 -1 -8 -5z"/>
<path d="M8990 9028 c-48 -51 -68 -84 -56 -95 9 -9 135 111 136 130 0 31 -30
18 -80 -35z"/>
<path d="M8113 8973 c-28 -53 -37 -132 -18 -157 11 -15 15 -16 19 -5 7 22 26
192 22 196 -2 2 -12 -13 -23 -34z"/>
<path d="M8410 8930 c-14 -9 -102 -192 -95 -199 11 -10 39 29 80 110 42 83 46
108 15 89z"/>
<path d="M8013 8783 c-28 -11 -11 -23 32 -23 45 0 60 12 29 24 -18 7 -43 7
-61 -1z"/>
<path d="M11216 8845 c-11 -8 -15 -15 -9 -15 6 0 16 7 23 15 16 19 11 19 -14
0z"/>
<path d="M11235 8790 c3 -5 8 -10 11 -10 2 0 4 5 4 10 0 6 -5 10 -11 10 -5 0
-7 -4 -4 -10z"/>
<path d="M11866 8541 c-4 -7 -5 -15 -2 -18 9 -9 19 4 14 18 -4 11 -6 11 -12 0z"/>
<path d="M11663 8113 c9 -2 23 -2 30 0 6 3 -1 5 -18 5 -16 0 -22 -2 -12 -5z"/>
<path d="M11750 8110 c-9 -6 -10 -10 -3 -10 6 0 15 5 18 10 8 12 4 12 -15 0z"/>
<path d="M11690 8094 l-25 -15 25 7 c14 3 29 10 35 15 15 14 -7 10 -35 -7z"/>
<path d="M9760 7885 c-133 -34 -328 -67 -529 -91 -201 -25 -236 -26 -501 -21
-176 4 -337 13 -422 24 -76 9 -140 14 -144 10 -14 -14 29 -45 84 -61 149 -41
239 -49 552 -50 349 -1 511 13 797 70 184 36 223 50 249 89 30 45 8 53 -86 30z"/>
<path d="M11690 7880 c-8 -5 -10 -10 -5 -10 6 0 17 5 25 10 8 5 11 10 5 10 -5
0 -17 -5 -25 -10z"/>
<path d="M11718 7863 c7 -3 16 -2 19 1 4 3 -2 6 -13 5 -11 0 -14 -3 -6 -6z"/>
<path d="M11708 7833 c7 -3 16 -2 19 1 4 3 -2 6 -13 5 -11 0 -14 -3 -6 -6z"/>
<path d="M11905 7701 c-3 -6 -19 -11 -35 -11 -16 0 -31 -4 -34 -9 -3 -4 13 -5
35 -1 41 8 56 16 47 26 -3 3 -9 1 -13 -5z"/>
<path d="M11785 7680 c-3 -5 -2 -10 4 -10 5 0 13 5 16 10 3 6 2 10 -4 10 -5 0
-13 -4 -16 -10z"/>
<path d="M11700 7659 c0 -5 11 -9 25 -9 14 0 25 2 25 4 0 2 -11 6 -25 8 -14 3
-25 1 -25 -3z"/>
<path d="M11798 7653 c7 -3 16 -2 19 1 4 3 -2 6 -13 5 -11 0 -14 -3 -6 -6z"/>
<path d="M11848 7653 c6 -2 18 -2 25 0 6 3 1 5 -13 5 -14 0 -19 -2 -12 -5z"/>
<path d="M11760 7640 c0 -5 5 -10 11 -10 5 0 7 5 4 10 -3 6 -8 10 -11 10 -2 0
-4 -4 -4 -10z"/>
<path d="M11775 7590 c-19 -8 -19 -9 3 -9 12 -1 22 4 22 9 0 6 -1 10 -2 9 -2
0 -12 -4 -23 -9z"/>
<path d="M8622 7538 c-20 -20 -14 -47 11 -52 12 -2 47 -9 77 -16 149 -31 539
-20 588 17 14 10 24 23 24 28 -1 5 -111 8 -265 7 -211 -3 -273 0 -320 12 -70
19 -99 20 -115 4z"/>
<path d="M3515 8636 c-67 -30 -85 -50 -85 -91 0 -42 18 -47 87 -23 78 27 123
24 168 -12 44 -35 58 -37 85 -10 37 37 18 85 -50 131 -56 38 -131 40 -205 5z"/>
<path d="M4279 8501 c-28 -9 -98 -78 -99 -97 0 -22 52 -33 194 -40 144 -7 147
-7 171 16 32 30 31 52 -2 90 -27 30 -31 31 -133 35 -58 3 -117 1 -131 -4z"/>
<path d="M3719 8416 c-50 -25 -82 -138 -65 -230 9 -46 43 -71 78 -57 54 20
100 210 65 264 -19 30 -48 38 -78 23z"/>
<path d="M4278 8248 c-41 -31 -61 -138 -36 -193 13 -29 53 -43 77 -28 23 14
41 55 51 120 9 50 7 61 -9 83 -21 29 -58 37 -83 18z"/>
<path d="M13760 7752 c0 -5 12 -14 26 -20 14 -7 23 -8 19 -2 -9 15 -45 32 -45
22z"/>
<path d="M14161 7504 c0 -11 3 -14 6 -6 3 7 2 16 -1 19 -3 4 -6 -2 -5 -13z"/>
<path d="M14120 6959 c0 -5 5 -7 10 -4 6 3 10 8 10 11 0 2 -4 4 -10 4 -5 0
-10 -5 -10 -11z"/>
<path d="M14100 6931 c0 -11 4 -22 9 -25 4 -3 6 6 3 19 -5 30 -12 33 -12 6z"/>
<path d="M14091 6884 c0 -11 3 -14 6 -6 3 7 2 16 -1 19 -3 4 -6 -2 -5 -13z"/>
<path d="M1618 6113 c7 -3 16 -2 19 1 4 3 -2 6 -13 5 -11 0 -14 -3 -6 -6z"/>
<path d="M12166 4124 c-4 -14 -5 -28 -3 -31 3 -2 8 8 11 23 4 14 5 28 3 31 -3
2 -8 -8 -11 -23z"/>
<path d="M12095 4020 l-20 -9 20 0 c11 0 29 4 40 9 l20 9 -20 0 c-11 0 -29 -4
-40 -9z"/>
<path d="M6128 4523 c6 -2 18 -2 25 0 6 3 1 5 -13 5 -14 0 -19 -2 -12 -5z"/>
</g>
</svg>
